<svg xmlns="http://www.w3.org/2000/svg" viewBox="0 0 41.44 14.31"><defs><style>.cls-1,.cls-2{fill:none;stroke:#000;stroke-miterlimit:10;stroke-width:0.5px;}.cls-2{stroke-dasharray:1.32 1.32;}</style></defs><title>logo</title><g id="Ebene_2" data-name="Ebene 2"><g id="Ebene_1-2" data-name="Ebene 1"><path d="M1.56,3.85H3.15c2.19,0,3.4,1.08,3.4,3.07,0,3-1.69,4.77-4.27,4.77H0Zm.69,6.8c1.77,0,3-1.33,3-3.65A1.9,1.9,0,0,0,3.12,4.89H2.64L1.5,10.65Z"/><path d="M8.32,5.8H9.6L8.42,11.69H7.13Zm.21-1.71a.86.86,0,0,1,.87-.84.68.68,0,0,1,.73.67.85.85,0,0,1-.87.84A.68.68,0,0,1,8.53,4.09Z"/><path d="M10.57,10.09a1.8,1.8,0,0,0,1.39.79c.55,0,1-.34,1-.77s-.31-.58-1.05-1S10.68,8.2,10.68,7.5a2,2,0,0,1,2.15-1.84,2.52,2.52,0,0,1,1.84.84L14,7.18a1.59,1.59,0,0,0-1.12-.55.85.85,0,0,0-.94.75c0,.43.5.63,1,.92.87.47,1.31.93,1.31,1.65,0,1.14-1,1.89-2.34,1.89A2.67,2.67,0,0,1,9.8,10.71Z"/><path d="M16.3,6.82h-.83l.19-1,.9-.06L17,4.22h1.08L17.79,5.8h1.42l-.2,1H17.57L17,9.75a2,2,0,0,0,0,.42c0,.43.19.65.68.65a1.18,1.18,0,0,0,.56-.16l.24.91a3.19,3.19,0,0,1-1.25.27,1.35,1.35,0,0,1-1.54-1.44,4.17,4.17,0,0,1,.08-.7Z"/><path d="M20.93,3.85h2.35c1.5,0,2.58.56,2.58,2,0,2.05-1.54,2.9-3.53,2.9H21.24l-.58,2.94H19.37Zm1.51,3.87c1.38,0,2.13-.57,2.13-1.69,0-.8-.55-1.15-1.53-1.15H22l-.56,2.84Z"/><path d="M27.24,5.8h1.28l-1.17,5.89h-1.3Zm.21-1.71a.86.86,0,0,1,.87-.84.68.68,0,0,1,.73.67.84.84,0,0,1-.86.84A.69.69,0,0,1,27.45,4.09Z"/><path d="M30.24,5.8h1l-.06.83h.05a3.25,3.25,0,0,1,2-1c1,0,1.39.54,1.39,1.49a3.67,3.67,0,0,1-.1.83l-.74,3.71H32.56l.72-3.55a3.71,3.71,0,0,0,.1-.62.66.66,0,0,0-.74-.76c-.41,0-.87.28-1.49.92l-.79,4h-1.3Z"/><path d="M41.44,5.8l-1.2,6a2.82,2.82,0,0,1-2.93,2.53,3.44,3.44,0,0,1-2.13-.82l.58-.86a2.52,2.52,0,0,0,1.58.65A1.71,1.71,0,0,0,39,11.79l.29-1.09h0a2.71,2.71,0,0,1-1.87.87c-1,0-1.71-.69-1.71-2.07,0-2.14,1.5-3.84,3.09-3.84a1.46,1.46,0,0,1,1.33.83h0l.25-.69Zm-2,3.82.45-2.18a1.15,1.15,0,0,0-1-.72c-1,0-1.83,1.21-1.83,2.61,0,.79.33,1.18.85,1.18A2,2,0,0,0,39.39,9.62Z"/><path class="cls-1" d="M9.34,4c.13-.16.26-.32.4-.47"/><path class="cls-2" d="M10.72,2.59c4.34-3.33,12.72-3,16.74.44"/><path class="cls-1" d="M28,3.49c.14.15.28.3.41.46"/></g></g></svg>